{
  "accessors": [
    {
      "bufferView": 2,
      "componentType": 5126,
      "count": 40766,
      "max": [
        0.6644316911697388,
        0.6084422469139099,
        0.6606936454772949
      ],
      "min": [
        -0.7127914428710938,
        -0.6555041074752808,
        -0.7315397262573242
      ],
      "type": "VEC3"
    },
    {
      "bufferView": 2,
      "byteOffset": 489192,
      "componentType": 5126,
      "count": 40766,
      "max": [
        0.9999104142189026,
        0.9998747706413269,
        0.999921441078186
      ],
      "min": [
        -0.9999999403953552,
        -0.9997351169586182,
        -0.9998384118080139
      ],
      "type": "VEC3"
    },
    {
      "bufferView": 1,
      "componentType": 5126,
      "count": 40766,
      "max": [
        0.999748706817627,
        0.8820248246192932
      ],
      "min": [
        0.00025346875190734863,
        0.00012156367301940918
      ],
      "type": "VEC2"
    },
    {
      "bufferView": 0,
      "componentType": 5125,
      "count": 239892,
      "type": "SCALAR"
    },
    {
      "bufferView": 2,
      "byteOffset": 978384,
      "componentType": 5126,
      "count": 44677,
      "max": [
        0.7104540467262268,
        0.616814374923706,
        0.6606936454772949
      ],
      "min": [
        -0.4827376902103424,
        -0.6129069924354553,
        -0.7315397262573242
      ],
      "type": "VEC3"
    },
    {
      "bufferView": 2,
      "byteOffset": 1514508,
      "componentType": 5126,
      "count": 44677,
      "max": [
        0.9999843239784241,
        0.9999364614486694,
        0.999980628490448
      ],
      "min": [
        -0.999721348285675,
        -0.999988317489624,
        -0.9998664259910583
      ],
      "type": "VEC3"
    },
    {
      "bufferView": 1,
      "byteOffset": 326128,
      "componentType": 5126,
      "count": 44677,
      "max": [
        0.9999030828475952,
        0.9559327960014343
      ],
      "min": [
        0.00016316771507263184,
        0.00015974044799804688
      ],
      "type": "VEC2"
    },
    {
      "bufferView": 0,
      "byteOffset": 959568,
      "componentType": 5125,
      "count": 262656,
      "type": "SCALAR"
    }
  ],
  "asset": {
    "extras": {
      "author": "matousekfoto (https://sketchfab.com/matousekfoto)",
      "license": "CC-BY-4.0 (http://creativecommons.org/licenses/by/4.0/)",
      "source": "https://sketchfab.com/3d-models/climbing-hold-d6dd1f711d744c7384b1612e32853369",
      "title": "Climbing hold"
    },
    "generator": "Sketchfab-14.86.0",
    "version": "2.0"
  },
  "bufferViews": [
    {
      "buffer": 0,
      "byteLength": 2010192,
      "name": "floatBufferViews",
      "target": 34963
    },
    {
      "buffer": 0,
      "byteLength": 683544,
      "byteOffset": 2010192,
      "byteStride": 8,
      "name": "floatBufferViews",
      "target": 34962
    },
    {
      "buffer": 0,
      "byteLength": 2050632,
      "byteOffset": 2693736,
      "byteStride": 12,
      "name": "floatBufferViews",
      "target": 34962
    }
  ],
  "buffers": [
    {
      "byteLength": 4744368,
      "uri": "scene.bin"
    }
  ],
  "extensionsUsed": [
    "KHR_materials_unlit"
  ],
  "images": [
    {
      "uri": "textures/material0_baseColor.jpeg"
    },
    {
      "uri": "textures/material1_baseColor.jpeg"
    }
  ],
  "materials": [
    {
      "doubleSided": true,
      "extensions": {
        "KHR_materials_unlit": {}
      },
      "name": "material0",
      "pbrMetallicRoughness": {
        "baseColorTexture": {
          "index": 0
        },
        "metallicFactor": 0.0
      }
    },
    {
      "doubleSided": true,
      "extensions": {
        "KHR_materials_unlit": {}
      },
      "name": "material1",
      "pbrMetallicRoughness": {
        "baseColorTexture": {
          "index": 1
        },
        "metallicFactor": 0.0
      }
    }
  ],
  "meshes": [
    {
      "name": "Model_material0_0",
      "primitives": [
        {
          "attributes": {
            "NORMAL": 1,
            "POSITION": 0,
            "TEXCOORD_0": 2
          },
          "indices": 3,
          "material": 0,
          "mode": 4
        }
      ]
    },
    {
      "name": "Model_material1_0",
      "primitives": [
        {
          "attributes": {
            "NORMAL": 5,
            "POSITION": 4,
            "TEXCOORD_0": 6
          },
          "indices": 7,
          "material": 1,
          "mode": 4
        }
      ]
    }
  ],
  "nodes": [
    {
      "children": [
        1
      ],
      "matrix": [
        0.0743550956249237,
        0.0,
        0.0,
        0.0,
        0.0,
        -0.027668957830563543,
        -0.06901527896825321,
        0.0,
        0.0,
        0.06901527896825321,
        -0.027668957830563543,
        0.0,
        0.0,
        0.0,
        0.0,
        1.0
      ],
      "name": "Sketchfab_model"
    },
    {
      "children": [
        2
      ],
      "matrix": [
        0.009999999776482582,
        0.0,
        0.0,
        0.0,
        0.0,
        0.0,
        0.009999999776482582,
        0.0,
        0.0,
        -0.009999999776482582,
        0.0,
        0.0,
        0.0,
        0.0,
        0.0,
        1.0
      ],
      "name": "climb-orange.fbx"
    },
    {
      "children": [
        3
      ],
      "name": "RootNode"
    },
    {
      "children": [
        4,
        5
      ],
      "matrix": [
        100.0,
        0.0,
        0.0,
        0.0,
        0.0,
        -2.8212996916465727e-05,
        -99.99999999999602,
        0.0,
        0.0,
        99.99999999999602,
        -2.8212996916465727e-05,
        0.0,
        0.0,
        0.0,
        0.0,
        1.0
      ],
      "name": "Model"
    },
    {
      "mesh": 0,
      "name": "Model_material0_0"
    },
    {
      "mesh": 1,
      "name": "Model_material1_0"
    }
  ],
  "samplers": [
    {
      "magFilter": 9729,
      "minFilter": 9987,
      "wrapS": 10497,
      "wrapT": 10497
    }
  ],
  "scene": 0,
  "scenes": [
    {
      "name": "Sketchfab_Scene",
      "nodes": [
        0
      ]
    }
  ],
  "textures": [
    {
      "sampler": 0,
      "source": 0
    },
    {
      "sampler": 0,
      "source": 1
    }
  ]
}
