<?xml version="1.0" standalone="no"?>
<!DOCTYPE svg PUBLIC "-//W3C//DTD SVG 20010904//EN"
 "http://www.w3.org/TR/2001/REC-SVG-20010904/DTD/svg10.dtd">
<svg version="1.0" xmlns="http://www.w3.org/2000/svg"
 width="384.000000pt" height="384.000000pt" viewBox="0 0 384.000000 384.000000"
 preserveAspectRatio="xMidYMid meet">
<metadata>
Created by potrace 1.14, written by Peter Selinger 2001-2017
</metadata>
<g transform="translate(0.000000,384.000000) scale(0.100000,-0.100000)"
fill="#000000" stroke="none">
<path d="M1039 3786 c-2 -2 -17 -7 -34 -10 -60 -10 -132 -34 -158 -51 -15 -9
-27 -15 -27 -11 0 9 -111 -63 -143 -93 -98 -90 -133 -130 -188 -216 -58 -90
-128 -235 -134 -275 0 -3 -3 -9 -6 -15 -8 -12 -22 -72 -24 -100 -1 -11 -3 -22
-4 -25 -4 -8 -22 -113 -27 -155 -1 -11 -5 -38 -9 -60 -4 -22 -8 -51 -10 -65
-2 -14 -6 -36 -9 -50 -3 -14 -7 -41 -10 -60 -3 -19 -7 -44 -10 -55 -2 -11 -7
-42 -11 -70 -8 -49 -9 -61 -21 -120 -3 -16 -7 -48 -9 -70 -2 -22 -4 -40 -5
-40 -2 0 -22 -108 -44 -250 -2 -11 -7 -39 -11 -63 -14 -85 -16 -98 -21 -132
-7 -53 -12 -85 -14 -85 -2 0 -7 -27 -15 -81 -3 -22 -8 -52 -10 -65 -11 -63
-47 -277 -50 -299 -2 -14 -6 -41 -10 -60 -15 -75 -12 -201 8 -360 20 -147 90
-339 170 -459 48 -73 166 -183 237 -223 63 -35 183 -82 238 -93 38 -8 57 -13
57 -15 0 -1 11 -3 25 -5 171 -26 430 -23 505 5 14 5 25 7 25 5 0 -8 173 56
232 86 32 16 64 40 73 54 8 14 23 37 32 53 10 15 16 30 15 35 -3 9 42 10 51 0
15 -14 146 -21 201 -10 38 8 92 46 108 76 7 14 41 67 76 118 34 51 62 98 62
103 0 6 4 10 9 10 5 0 14 14 21 30 7 17 16 30 21 30 5 0 9 5 9 11 0 6 10 24
21 41 l21 29 22 -20 c30 -28 64 -38 121 -35 61 2 98 9 121 22 15 8 24 1 53
-41 20 -27 43 -54 51 -58 38 -19 153 -59 158 -55 2 3 12 1 21 -3 9 -5 39 -12
66 -17 59 -9 286 -13 300 -4 6 3 24 7 40 9 29 3 145 39 202 63 16 6 30 12 33
13 13 4 87 41 98 50 45 34 169 165 156 165 -4 0 0 8 9 18 14 15 43 75 49 99 1
5 7 19 14 32 7 14 11 28 8 33 -3 4 0 8 6 8 7 0 10 6 7 13 -2 6 0 21 6 32 6 11
12 29 13 40 1 11 5 34 8 50 5 23 15 155 18 230 1 21 -12 127 -16 134 -3 4 -7
18 -10 32 -2 13 -12 56 -21 94 -9 39 -18 80 -20 92 -1 12 -6 34 -9 50 -4 15
-9 38 -11 51 -3 12 -7 32 -11 45 -3 12 -7 33 -9 47 -3 14 -9 41 -14 60 -5 19
-20 80 -32 135 -12 55 -27 125 -35 155 -7 31 -16 73 -20 95 -3 22 -11 46 -16
53 -6 6 -8 12 -5 12 3 0 -4 37 -14 83 -11 45 -22 96 -25 112 -3 17 -9 44 -15
61 -5 17 -11 48 -14 70 -2 22 -8 52 -14 67 -6 15 -8 27 -5 27 4 0 1 7 -6 15
-7 8 -10 22 -6 30 3 8 1 15 -5 15 -6 0 -8 4 -4 10 14 22 -85 260 -124 299 -11
11 -18 21 -15 21 21 0 -178 209 -199 210 -4 0 -25 12 -46 26 -22 14 -45 27
-53 28 -7 2 -20 6 -28 9 -81 33 -264 48 -342 27 -18 -5 -44 -11 -58 -14 -47
-8 -253 -97 -270 -117 -3 -3 -27 -20 -55 -39 -27 -19 -67 -47 -88 -64 l-37
-30 -33 32 c-59 57 -82 77 -159 140 -42 34 -81 62 -87 62 -6 0 -11 3 -11 8 0
4 -33 27 -72 52 -40 24 -76 48 -79 53 -3 5 -8 8 -10 7 -2 0 -47 19 -99 43 -52
24 -113 50 -135 56 -22 7 -47 15 -55 18 -8 4 -19 5 -24 4 -4 -1 -13 2 -20 7
-6 4 -24 9 -41 11 -16 2 -37 6 -45 11 -15 7 -254 13 -261 6z m316 -611 c99
-47 226 -141 334 -244 l91 -89 -49 -82 c-28 -45 -53 -91 -56 -101 -4 -11 -11
-19 -16 -19 -5 0 -9 -5 -9 -10 0 -6 -7 -27 -16 -48 -10 -20 -18 -41 -20 -47
-1 -5 -10 -28 -19 -50 -76 -176 -81 -343 -15 -510 30 -75 119 -240 139 -255
14 -11 11 -32 -3 -27 -8 3 -31 -5 -52 -19 -47 -32 -55 -41 -79 -87 -11 -21
-28 -47 -37 -57 -10 -11 -18 -24 -18 -29 0 -5 -6 -16 -13 -23 -7 -7 -40 -56
-72 -108 -33 -52 -63 -99 -68 -105 -4 -5 -39 -59 -77 -120 -38 -60 -79 -121
-90 -135 -11 -14 -20 -31 -20 -37 0 -7 -5 -13 -11 -13 -5 0 -7 -4 -4 -10 3 -5
2 -10 -2 -10 -15 0 -43 -65 -45 -105 -2 -47 8 -87 33 -134 17 -31 17 -37 3
-60 -30 -50 -39 -58 -89 -71 -62 -16 -222 -23 -230 -10 -4 6 -13 10 -22 10
-26 0 -78 29 -115 64 -45 42 -85 125 -103 212 -14 66 -15 242 -1 309 7 33 22
128 31 190 3 22 7 47 9 55 3 18 19 121 21 135 2 15 16 106 21 135 3 14 7 39 9
55 3 17 7 41 10 55 3 14 7 43 10 65 2 22 6 51 9 65 12 61 17 88 22 125 3 22 8
51 10 65 3 14 7 39 10 55 3 17 9 53 14 80 5 28 12 61 14 75 20 111 38 197 43
210 3 8 7 26 9 40 4 33 9 56 35 154 11 45 23 88 25 96 23 93 108 290 125 290
5 0 9 5 9 12 0 6 18 28 41 49 71 66 157 70 274 14z m1429 -92 c3 -4 14 -8 22
-9 29 -4 81 -47 105 -86 13 -21 27 -38 31 -38 5 0 8 -8 8 -18 0 -10 4 -22 9
-27 16 -17 107 -267 118 -325 2 -14 11 -45 19 -70 8 -25 16 -56 18 -70 3 -14
5 -25 6 -25 2 0 6 -19 15 -64 3 -19 9 -39 12 -44 3 -6 7 -20 9 -31 5 -38 15
-80 24 -111 5 -16 11 -43 14 -60 9 -55 18 -100 23 -115 8 -19 9 -27 17 -70 4
-29 30 -146 51 -235 3 -11 7 -34 9 -52 3 -18 7 -36 10 -42 3 -5 8 -26 12 -47
3 -22 10 -57 16 -79 25 -98 32 -169 24 -245 -5 -39 -9 -60 -20 -105 -5 -22
-39 -78 -63 -105 -21 -24 -70 -51 -105 -60 -4 -1 -21 -5 -38 -10 -18 -5 -32
-5 -35 1 -4 5 -13 5 -24 -1 -10 -5 -21 -7 -24 -4 -3 4 -28 8 -54 10 -36 2 -52
9 -63 26 -8 12 -20 27 -26 32 -8 8 -7 22 6 52 11 25 17 61 16 91 -3 51 -4 54
-101 185 -27 37 -66 90 -85 118 -19 28 -42 59 -50 69 -9 9 -26 33 -39 54 -12
20 -26 37 -31 37 -14 0 -19 44 -6 60 37 43 117 243 142 352 21 92 23 318 4
318 -3 0 -6 9 -7 20 -6 77 -139 355 -238 496 -41 60 -42 63 -25 81 51 53 154
114 228 137 57 18 57 18 66 9z m-678 -740 c-2 -2 4 -30 14 -61 21 -68 26 -178
9 -198 -6 -8 -9 -14 -6 -14 4 0 3 -10 -2 -22 -8 -21 -25 -28 -27 -10 0 4 -8
25 -18 47 -37 85 -38 116 -10 223 14 52 19 60 30 51 8 -7 13 -14 10 -16z"/>
</g>
</svg>
